<svg width="276" height="274" viewBox="0 0 276 274" fill="none" xmlns="http://www.w3.org/2000/svg">
<path d="M202.587 110.525C203.466 112.983 202.763 115.705 200.829 117.373L188.695 128.346C189.047 130.628 189.135 132.998 189.135 135.456C189.135 137.914 188.959 140.196 188.695 142.567L200.829 153.54C202.763 155.295 203.554 158.017 202.587 160.387C201.356 163.723 199.862 166.883 198.191 169.955L196.872 172.238C195.026 175.31 192.915 178.207 190.717 180.928C189.047 182.947 186.321 183.649 183.859 182.859L168.296 177.944C164.515 180.84 160.383 183.211 155.987 185.054L152.47 201.031C151.942 203.576 149.92 205.595 147.37 206.034C143.501 206.649 139.545 207 135.5 207C131.455 207 127.499 206.649 123.63 206.034C121.08 205.595 119.058 203.576 118.53 201.031L115.013 185.054C110.617 183.211 106.485 180.84 102.704 177.944L87.1409 182.947C84.679 183.737 81.9533 182.947 80.2827 181.016C77.9967 178.295 75.9744 175.398 74.1279 172.325L72.8091 170.043C71.1385 166.971 69.6437 163.81 68.4128 160.475C67.5335 158.017 68.2369 155.295 70.1713 153.627L82.305 142.654C81.9533 140.284 81.8654 137.914 81.8654 135.544C81.8654 133.174 82.0413 130.804 82.305 128.433L70.1713 117.46C68.2369 115.705 67.4456 112.983 68.4128 110.613C69.6437 107.277 71.1385 104.117 72.8091 101.045L74.1279 98.7624C75.9744 95.69 78.0846 92.7931 80.2827 90.0718C81.9533 88.0528 84.679 87.3505 87.1409 88.1406L102.704 93.0565C106.485 90.1596 110.617 87.7894 115.013 85.946L118.53 69.9693C119.058 67.4236 121.08 65.4045 123.63 64.9656C127.499 64.2634 131.455 64 135.5 64C139.545 64 143.501 64.3511 147.37 64.9656C149.92 65.4045 151.942 67.4236 152.47 69.9693L155.987 85.946C160.383 87.7894 164.515 90.1596 168.296 93.0565L183.859 88.1406C186.321 87.3505 189.047 88.1406 190.717 90.0718C193.003 92.7931 195.026 95.69 196.872 98.7624L198.191 101.045C199.862 104.117 201.356 107.277 202.587 110.613V110.525ZM135.412 157.841C147.81 157.841 157.833 147.834 157.833 135.456C157.833 123.079 147.81 113.071 135.412 113.071C123.015 113.071 112.991 123.079 112.991 135.456C112.991 147.834 123.015 157.841 135.412 157.841Z" fill="#6812F3"/>
<path d="M271 135.4C271 165.3 261.3 192.9 245 215.3C252.9 223.2 260.7 231 268.6 238.9C269.6 239.8 275.4 245.4 275.3 254.4C275.3 255 275 263.2 269.4 268.4C262.2 275 248.5 274.9 237 266.3C229.8 259.1 222.7 252 215.5 244.8C207.8 250.4 196.2 257.7 180.8 263.2C166.7 268.2 151.5 270.9 135.7 270.9C60.9 270.9 0.299988 210.3 0.299988 135.5C0.299988 60.7 60.8 0 135.6 0C210.4 0 271 60.6 271 135.4ZM135.6 229.1C187.4 229.1 229.3 187.1 229.3 135.4C229.3 83.7 187.3 41.7 135.6 41.7C83.9 41.7 41.9 83.7 41.9 135.4C41.9 187.1 83.9 229.1 135.6 229.1Z" fill="#6812F3"/>
</svg>
