<svg width="1028" height="274" viewBox="0 0 1028 274" fill="none" xmlns="http://www.w3.org/2000/svg">
<path d="M393.159 172.37H402.905L388.286 158.536L373.667 172.37H383.413V218.428H346V118.294H386.871V128.04L400.076 113.421L386.871 98.8012V108.547H346V72.5493H390.33C400.705 72.5493 409.822 76.7936 417.996 85.1251C426.013 93.6138 430.101 102.888 430.101 113.263C430.101 123.638 425.385 134.328 415.953 145.332C422.241 152.72 426.171 158.536 427.743 162.623C429.786 167.496 430.887 174.885 430.887 184.631V218.271H393.159V172.212V172.37Z" fill="#6812F3"/>
<path d="M493.923 218.271V191.076H484.176V218.271H446.606V113.421C446.606 101.002 450.536 90.627 458.396 82.2955C466.413 73.8069 476.631 69.7197 488.892 69.7197C501.154 69.7197 511.214 73.9641 519.231 82.6099C527.249 91.0986 531.336 101.316 531.336 113.578V218.428H493.766L493.923 218.271ZM489.05 99.5872L474.43 113.421H484.176V165.296H493.923V113.421H503.669L489.05 99.5872Z" fill="#6812F3"/>
<path d="M595.315 218.271V115.307H605.061L590.442 101.474L575.822 115.307H585.569V218.271H547.999V72.5493H588.241C600.974 72.5493 611.506 76.1648 619.838 83.3959C628.326 91.0986 632.728 101.159 632.728 113.892V218.271H595.158H595.315Z" fill="#6812F3"/>
<path d="M695.921 218.271V168.282H705.667L691.048 154.449L676.429 168.282H686.175V218.271H648.605V72.5493H686.175V108.547H695.921V72.5493H733.491V101.159C733.491 108.862 732.548 114.993 730.505 119.551C728.776 123.796 725.317 128.983 719.815 135.114C721.544 136.843 723.116 138.572 724.531 140.459C725.946 142.345 727.361 144.388 728.618 146.589C731.919 151.934 733.491 156.335 733.491 159.951V218.271H695.921Z" fill="#6812F3"/>
<path d="M1014.56 149.733C1006.07 157.907 995.225 161.995 981.706 161.995V218.271H944.45V122.066H985.322V131.813L998.526 117.193L985.322 102.574V112.32H944.45V72.5493H988.78C999.312 72.5493 1008.43 77.4224 1016.13 87.3258C1023.52 96.6005 1027.14 106.504 1027.14 117.193C1027.14 127.883 1022.89 141.245 1014.56 149.576V149.733Z" fill="#6812F3"/>
<path d="M843.361 68.4709C852.164 58.8761 863.324 54 877 54C890.676 54 901.836 58.8761 910.639 68.4709C919.599 78.2231 924 90.02 924 103.704V219H882.344V103.704H893.191L877 88.4471L860.809 103.704H871.656V219H830V103.704C830 90.02 834.401 78.2231 843.361 68.4709Z" fill="#6812F3"/>
<path d="M202.287 110.525C203.166 112.983 202.463 115.705 200.529 117.373L188.395 128.346C188.747 130.628 188.835 132.998 188.835 135.456C188.835 137.914 188.659 140.196 188.395 142.567L200.529 153.54C202.463 155.295 203.254 158.017 202.287 160.387C201.056 163.723 199.562 166.883 197.891 169.955L196.572 172.238C194.726 175.31 192.615 178.207 190.417 180.928C188.747 182.947 186.021 183.649 183.559 182.859L167.996 177.944C164.215 180.84 160.083 183.211 155.687 185.054L152.17 201.031C151.642 203.576 149.62 205.595 147.07 206.034C143.201 206.649 139.245 207 135.2 207C131.155 207 127.199 206.649 123.33 206.034C120.78 205.595 118.758 203.576 118.23 201.031L114.713 185.054C110.317 183.211 106.185 180.84 102.404 177.944L86.8409 182.947C84.379 183.737 81.6533 182.947 79.9828 181.016C77.6967 178.295 75.6744 175.398 73.828 172.325L72.5091 170.043C70.8385 166.971 69.3438 163.81 68.1128 160.475C67.2335 158.017 67.9369 155.295 69.8713 153.627L82.005 142.654C81.6533 140.284 81.5654 137.914 81.5654 135.544C81.5654 133.174 81.7413 130.804 82.005 128.433L69.8713 117.46C67.9369 115.705 67.1456 112.983 68.1128 110.613C69.3438 107.277 70.8385 104.117 72.5091 101.045L73.828 98.7624C75.6744 95.69 77.7846 92.7931 79.9828 90.0718C81.6533 88.0528 84.379 87.3505 86.8409 88.1406L102.404 93.0565C106.185 90.1596 110.317 87.7894 114.713 85.946L118.23 69.9693C118.758 67.4236 120.78 65.4045 123.33 64.9656C127.199 64.2634 131.155 64 135.2 64C139.245 64 143.201 64.3511 147.07 64.9656C149.62 65.4045 151.642 67.4236 152.17 69.9693L155.687 85.946C160.083 87.7894 164.215 90.1596 167.996 93.0565L183.559 88.1406C186.021 87.3505 188.747 88.1406 190.417 90.0718C192.703 92.7931 194.726 95.69 196.572 98.7624L197.891 101.045C199.562 104.117 201.056 107.277 202.287 110.613V110.525ZM135.112 157.841C147.51 157.841 157.533 147.834 157.533 135.456C157.533 123.079 147.51 113.071 135.112 113.071C122.715 113.071 112.691 123.079 112.691 135.456C112.691 147.834 122.715 157.841 135.112 157.841Z" fill="#6812F3"/>
<path d="M270.7 135.4C270.7 165.3 261 192.9 244.7 215.3C252.6 223.2 260.4 231 268.3 238.9C269.3 239.8 275.1 245.4 275 254.4C275 255 274.7 263.2 269.1 268.4C261.9 275 248.2 274.9 236.7 266.3C229.5 259.1 222.4 252 215.2 244.8C207.5 250.4 195.9 257.7 180.5 263.2C166.4 268.2 151.2 270.9 135.4 270.9C60.6 270.9 0 210.3 0 135.5C0 60.7 60.5 0 135.3 0C210.1 0 270.7 60.6 270.7 135.4ZM135.3 229.1C187.1 229.1 229 187.1 229 135.4C229 83.7 187 41.7 135.3 41.7C83.6 41.7 41.6 83.7 41.6 135.4C41.6 187.1 83.6 229.1 135.3 229.1Z" fill="#6812F3"/>
</svg>
